# xmcd
#
# Track frame offsets:
#	150
#	14978
#	25950
#	39168
#	53304
#	65432
#	81306
#	99823
#	119016
#	131678
#
# Disc length: 1972 seconds
#
# Revision: 0
# Processed by: cddbd v1.5.2PL0 Copyright (c) Steve Scherf et al.
# Submitted via: dBpowerAMP V4.0
#
DISCID=7e07b20a
DTITLE=Aarne Tenkanen and Tempuntekij‰t - Viimeinen ratikkamatka
DYEAR=2007
DGENRE=Rock
TTITLE0=Rockabilly-Raija
TTITLE1=Monica-humppa
TTITLE2=Viimeinen ratikkamatka
TTITLE3=T‰‰lt‰ tulee Tenkanen
TTITLE4=Grabbisp‰iv‰
TTITLE5=Makuuhuoneen masurkka
TTITLE6=Posliini-Kati
TTITLE7=Rakkauden Jerry Cotton
TTITLE8=Kalastus-valssi
TTITLE9=N‰ill‰ korteilla menn‰‰n
EXTD=
EXTT0=
EXTT1=
EXTT2=
EXTT3=
EXTT4=
EXTT5=
EXTT6=
EXTT7=
EXTT8=
EXTT9=
PLAYORDER=
